<svg width="20" height="23" xmlns="http://www.w3.org/2000/svg"><g fill="#A59F99" fill-rule="evenodd"><path d="M13.73 9.19H17v10.143a3 3 0 0 1-3 3H3a3 3 0 0 1-3-3V9.19h3.27V6.685a5.8 5.8 0 0 1 .377-2.095A5.19 5.19 0 0 1 4.71 2.876a4.957 4.957 0 0 1 1.645-1.15c.64-.28 1.348-.421 2.125-.421.464 0 .906.052 1.328.156v1.356A4.268 4.268 0 0 0 8.48 2.62c-1.186 0-2.132.397-2.84 1.191-.709.794-1.063 1.752-1.063 2.875V9.19h7.846V7.22h1.308V9.19zM1.309 10.505v8.514a2 2 0 0 0 2 2h10.384a2 2 0 0 0 2-2v-8.514H1.308zM8.5 13.133c.368 0 .678.127.93.38.252.254.378.565.378.935 0 .246-.062.469-.184.667-.123.199-.28.353-.47.462v2.156a.633.633 0 0 1-.194.462.627.627 0 0 1-.46.195.627.627 0 0 1-.46-.195.633.633 0 0 1-.194-.462v-2.156a1.322 1.322 0 0 1-.47-.462 1.245 1.245 0 0 1-.184-.667c0-.37.126-.681.378-.935a1.26 1.26 0 0 1 .93-.38z"/><path d="M14.916 6h-.824a.228.228 0 0 1-.158-.052.455.455 0 0 1-.094-.116l-.94-1.508a.91.91 0 0 1-.096.236l-.852 1.272a.751.751 0 0 1-.098.116.196.196 0 0 1-.142.052h-.768l1.412-2.104L11 1.92h.824c.067 0 .115.01.146.03.03.02.058.05.082.09l.924 1.44a.923.923 0 0 1 .112-.252l.78-1.172c.053-.09.121-.136.204-.136h.788l-1.356 1.94L14.916 6zm4.492-.812c.093 0 .167.027.22.082.053.055.08.125.08.21V6h-3.896v-.292a.524.524 0 0 1 .152-.36l1.792-1.796c.152-.152.287-.297.406-.436.119-.139.22-.277.304-.416.084-.139.148-.28.192-.422.044-.143.066-.293.066-.45 0-.152-.023-.286-.07-.402a.791.791 0 0 0-.192-.288.8.8 0 0 0-.292-.172 1.152 1.152 0 0 0-.374-.058c-.13 0-.251.019-.362.056-.11.037-.21.09-.296.156a.896.896 0 0 0-.216.238c-.057.092-.1.193-.126.302-.04.11-.091.183-.154.22-.063.037-.154.045-.274.024l-.452-.08c.04-.272.115-.51.226-.716a1.69 1.69 0 0 1 .996-.826 2.27 2.27 0 0 1 .706-.106c.256 0 .491.038.706.114.215.076.4.184.556.324.156.14.278.31.366.51.088.2.132.425.132.676 0 .213-.031.41-.094.592a2.406 2.406 0 0 1-.254.52 3.637 3.637 0 0 1-.374.482c-.143.156-.293.314-.45.474L17.04 5.292c.115-.032.23-.057.346-.076a2.08 2.08 0 0 1 .33-.028h1.692z"/></g></svg>