<svg width="18" height="22" xmlns="http://www.w3.org/2000/svg" xmlns:xlink="http://www.w3.org/1999/xlink"><path fill="#A59F99" d="M 12.667,8.333 V 5.791 C 12.667,4.639 12.295,3.663 11.552,2.864 10.809,2.066 9.84,1.666 8.646,1.666 7.437,1.666 6.472,2.069 5.75,2.875 5.028,3.68 4.667,4.652 4.667,5.791 v 2.542 z m 1.333,0 h 3.333 v 10.333 a 3,3 0 0 1 -3,3 H 3 a 3,3 0 0 1 -3,-3 V 8.333 H 3.333 V 5.791 c 0,-0.75 0.129,-1.458 0.386,-2.125 A 5.26,5.26 0 0 1 4.802,1.926 5.054,5.054 0 0 1 6.48,0.761 C 7.132,0.475 7.854,0.333 8.646,0.333 c 0.778,0 1.496,0.142 2.156,0.427 0.66,0.285 1.226,0.67 1.698,1.156 0.472,0.486 0.84,1.063 1.104,1.73 C 13.868,4.312 14,5.027 14,5.791 V 8.333 Z M 1.333,9.666 v 8.667 a 2,2 0 0 0 2,2 H 14 a 2,2 0 0 0 2,-2 V 9.666 Z m 7.334,2.667 c 0.375,0 0.69,0.128 0.948,0.385 0.257,0.257 0.385,0.573 0.385,0.948 0,0.25 -0.062,0.476 -0.188,0.677 a 1.345,1.345 0 0 1 -0.479,0.47 V 17 A 0.64,0.64 0 0 1 9.135,17.468 0.64,0.64 0 0 1 8.667,17.666 0.64,0.64 0 0 1 8.197,17.468 0.64,0.64 0 0 1 8,17 V 14.812 A 1.345,1.345 0 0 1 7.52,14.343 1.258,1.258 0 0 1 7.333,13.666 c 0,-0.375 0.129,-0.69 0.386,-0.948 0.257,-0.257 0.573,-0.385 0.948,-0.385 z"/></svg>
