<svg xmlns="http://www.w3.org/2000/svg" viewBox="0 0 20 16"><path fill="#3E3832" d="M18.2 1.1c-1.3.6-2.5 1.4-3.5 2.6s-1.4 2.4-1.4 3.6c0 .5.1 1 .2 1.3.7-.6 1.5-.8 2.4-.8 1.1.1 2.1.4 2.9 1.2.8.7 1.2 1.7 1.2 3 0 1.2-.4 2.1-1.2 2.9-.8.7-1.8 1.1-2.9 1.1-1.7 0-2.9-.7-3.8-2-.7-1.1-1.1-2.5-1.1-4.2 0-2.1.6-4 1.7-5.7s2.8-3 5-4.1l.5 1.1zm-11 0c-1.3.6-2.5 1.5-3.4 2.7S2.3 6.2 2.3 7.4c0 .5.1 1 .2 1.3.7-.5 1.5-.8 2.4-.8 1.2 0 2.1.3 2.9 1.1.8.7 1.2 1.7 1.2 3 0 .8-.2 1.5-.6 2.1s-.8 1-1.4 1.4c-.6.4-1.3.5-2 .5-1.7 0-2.9-.7-3.8-2C.4 12.9 0 11.5 0 9.8c0-2.1.6-4 1.7-5.7s2.8-3 5-4.1l.5 1.1z"/></svg>