<svg xmlns="http://www.w3.org/2000/svg" xmlns:xlink="http://www.w3.org/1999/xlink" width="32" height="32"><circle fill="#6EBE43" cx="16" cy="16" r="16"/><path fill="#FFF" d="M 24.15,10.125 H 8.85 C 8.38,10.125 8,10.501 8,10.965 v 8.184 c 0,0.464 0.38,0.84 0.85,0.84 h 6.8 v 1.679 h -1.7 c -0.47,0 -0.85,0.376 -0.85,0.84 0,0.463 0.38,0.84 0.85,0.84 h 5.1 c 0.47,0 0.85,-0.377 0.85,-0.84 0,-0.464 -0.38,-0.84 -0.85,-0.84 h -1.7 v -1.68 h 6.8 c 0.47,0 0.85,-0.375 0.85,-0.839 v -8.184 c 0,-0.464 -0.38,-0.84 -0.85,-0.84 z"/></svg>
